<svg width="68" height="68" viewBox="0 0 68 68" fill="none" xmlns="http://www.w3.org/2000/svg">
<g filter="url(#filter0_d_462_60)">
<g clip-path="url(#clip0_462_60)">
<rect x="4" width="60" height="60" rx="12" fill="#ECF9FF" fill-opacity="0.8"/>
<g filter="url(#filter1_f_462_60)">
<rect x="20" y="25" width="27" height="27" rx="10" fill="#00AA63" fill-opacity="0.25"/>
</g>
<g clip-path="url(#clip1_462_60)">
<path d="M45.483 35.0338C44.6767 37.2192 43.4572 39.1194 41.858 40.681C40.0377 42.4585 37.6541 43.871 34.7734 44.8785C34.6789 44.9115 34.5802 44.9385 34.4811 44.9584C34.3502 44.9842 34.217 44.9982 34.0849 45H34.0591C33.9183 45 33.7768 44.9859 33.6365 44.9584C33.5374 44.9385 33.4402 44.9115 33.3461 44.8792C30.4619 43.8733 28.0754 42.4615 26.2533 40.684C24.6534 39.1224 23.4341 37.2233 22.6289 35.038C21.1648 31.0646 21.2481 26.6874 21.3151 23.17L21.3163 23.1159C21.3298 22.8255 21.3385 22.5204 21.3433 22.1835C21.3678 20.5293 22.6829 19.1609 24.3373 19.0686C27.7865 18.8761 30.4548 17.7512 32.7347 15.529L32.7547 15.5107C33.1332 15.1634 33.6102 14.9931 34.0849 15.0002C34.5427 15.0062 34.9986 15.1763 35.3637 15.5107L35.3831 15.529C37.6635 17.7512 40.3318 18.8761 43.781 19.0686C45.4354 19.1609 46.7506 20.5293 46.7751 22.1835C46.7799 22.5227 46.7886 22.8273 46.8021 23.1159L46.8027 23.1388C46.8696 26.6629 46.9524 31.0488 45.483 35.0338Z" fill="#00DD80"/>
<path d="M45.4829 35.0338C44.6765 37.2192 43.457 39.1194 41.8578 40.681C40.0375 42.4585 37.654 43.871 34.7733 44.8785C34.6787 44.9115 34.5801 44.9385 34.481 44.9584C34.3501 44.9842 34.2168 44.9982 34.0848 45V15.0002C34.5425 15.0062 34.9985 15.1763 35.3635 15.5107L35.383 15.529C37.6634 17.7512 40.3317 18.8761 43.7809 19.0686C45.4353 19.1609 46.7504 20.5293 46.7749 22.1835C46.7797 22.5227 46.7884 22.8273 46.8019 23.1159L46.8026 23.1388C46.8695 26.6629 46.9523 31.0488 45.4829 35.0338Z" fill="#00AA63"/>
<path d="M41.5351 30C41.5351 34.1137 38.195 37.4623 34.0848 37.4769H34.0584C29.936 37.4769 26.5815 34.1227 26.5815 30C26.5815 25.8776 29.936 22.5234 34.0584 22.5234H34.0848C38.195 22.538 41.5351 25.8866 41.5351 30Z" fill="white"/>
<path d="M41.5351 30C41.5351 34.1137 38.1951 37.4623 34.0848 37.4769V22.5234C38.1951 22.538 41.5351 25.8866 41.5351 30Z" fill="#E1EBF0"/>
<path d="M37.4521 28.9234L34.0848 32.2911L33.3571 33.0187C33.1852 33.1906 32.9598 33.2765 32.7346 33.2765C32.5091 33.2765 32.2839 33.1906 32.1118 33.0187L30.5474 31.4536C30.2036 31.1099 30.2036 30.553 30.5474 30.209C30.8907 29.8652 31.4483 29.8652 31.792 30.209L32.7346 31.1515L36.2074 27.6787C36.5512 27.3347 37.1087 27.3347 37.4521 27.6787C37.7958 28.0225 37.7958 28.58 37.4521 28.9234Z" fill="#B4D2D7"/>
<path d="M37.4521 28.9234L34.0848 32.2911V29.8011L36.2074 27.6787C36.5512 27.3347 37.1087 27.3347 37.4521 27.6787C37.7958 28.0225 37.7958 28.58 37.4521 28.9234Z" fill="#6FA5AA"/>
</g>
</g>
</g>
<defs>
<filter id="filter0_d_462_60" x="0" y="0" width="68" height="68" filterUnits="userSpaceOnUse" color-interpolation-filters="sRGB">
<feFlood flood-opacity="0" result="BackgroundImageFix"/>
<feColorMatrix in="SourceAlpha" type="matrix" values="0 0 0 0 0 0 0 0 0 0 0 0 0 0 0 0 0 0 127 0" result="hardAlpha"/>
<feOffset dy="4"/>
<feGaussianBlur stdDeviation="2"/>
<feComposite in2="hardAlpha" operator="out"/>
<feColorMatrix type="matrix" values="0 0 0 0 0 0 0 0 0 0 0 0 0 0 0 0 0 0 0.25 0"/>
<feBlend mode="normal" in2="BackgroundImageFix" result="effect1_dropShadow_462_60"/>
<feBlend mode="normal" in="SourceGraphic" in2="effect1_dropShadow_462_60" result="shape"/>
</filter>
<filter id="filter1_f_462_60" x="10" y="15" width="47" height="47" filterUnits="userSpaceOnUse" color-interpolation-filters="sRGB">
<feFlood flood-opacity="0" result="BackgroundImageFix"/>
<feBlend mode="normal" in="SourceGraphic" in2="BackgroundImageFix" result="shape"/>
<feGaussianBlur stdDeviation="5" result="effect1_foregroundBlur_462_60"/>
</filter>
<clipPath id="clip0_462_60">
<rect x="4" width="60" height="60" rx="12" fill="white"/>
</clipPath>
<clipPath id="clip1_462_60">
<rect width="30" height="30" fill="white" transform="translate(19 15)"/>
</clipPath>
</defs>
</svg>
