<svg width="45" height="20" viewBox="0 0 45 20" fill="none" xmlns="http://www.w3.org/2000/svg">
<path d="M28.4316 15L28.8623 12.9287H24.8291L25.1572 11.3291L30.4209 5.00586H32.5469L31.2139 11.2881H32.376L32.0273 12.9287H30.8652L30.4346 15H28.4316ZM27.085 11.2881H29.2109L29.6074 9.59277C29.6576 9.35579 29.7168 9.09831 29.7852 8.82031C29.8581 8.53776 29.9287 8.27572 29.9971 8.03418C30.07 7.79264 30.127 7.61719 30.168 7.50781H30.0928C29.9925 7.6901 29.8626 7.8929 29.7031 8.11621C29.5482 8.33496 29.3887 8.5446 29.2246 8.74512L27.085 11.2881ZM33.9414 15.1846C33.554 15.1846 33.2806 15.0843 33.1211 14.8838C32.9616 14.6833 32.8818 14.46 32.8818 14.2139C32.8818 13.8766 32.9867 13.5667 33.1963 13.2842C33.4059 13.0016 33.766 12.8604 34.2764 12.8604C34.5863 12.8604 34.8346 12.9469 35.0215 13.1201C35.2083 13.2933 35.3018 13.5371 35.3018 13.8516C35.3018 14.2389 35.1787 14.5579 34.9326 14.8086C34.6865 15.0592 34.3561 15.1846 33.9414 15.1846ZM38.9316 15.1367C38.6263 15.1367 38.3232 15.1139 38.0225 15.0684C37.7217 15.0228 37.4779 14.9727 37.291 14.918V13.168C37.4642 13.2272 37.6898 13.2887 37.9678 13.3525C38.2458 13.4163 38.5374 13.4482 38.8428 13.4482C39.3486 13.4482 39.7793 13.3617 40.1348 13.1885C40.4902 13.0153 40.7842 12.7829 41.0166 12.4912C41.2536 12.1995 41.445 11.8737 41.5908 11.5137C41.7367 11.1536 41.8574 10.7845 41.9531 10.4062H41.8984C41.748 10.6204 41.5749 10.8096 41.3789 10.9736C41.1875 11.1331 40.9688 11.2585 40.7227 11.3496C40.4766 11.4408 40.1963 11.4863 39.8818 11.4863C39.3486 11.4863 38.9089 11.3701 38.5625 11.1377C38.2161 10.9053 37.9587 10.5885 37.79 10.1875C37.626 9.78646 37.5439 9.33301 37.5439 8.82715C37.5439 8.53092 37.5804 8.20508 37.6533 7.84961C37.7262 7.49414 37.847 7.14095 38.0156 6.79004C38.1888 6.43457 38.4189 6.111 38.7061 5.81934C38.9977 5.52767 39.36 5.29297 39.793 5.11523C40.2259 4.9375 40.7409 4.84863 41.3379 4.84863C41.9076 4.84863 42.4043 4.96257 42.8281 5.19043C43.252 5.41829 43.5801 5.77604 43.8125 6.26367C44.0495 6.7513 44.168 7.38249 44.168 8.15723C44.168 8.64941 44.127 9.15983 44.0449 9.68848C43.9674 10.2126 43.849 10.7298 43.6895 11.2402C43.5299 11.7461 43.3317 12.2223 43.0947 12.6689C42.8577 13.1156 42.5798 13.5052 42.2607 13.8379C42.0648 14.043 41.8506 14.2253 41.6182 14.3848C41.3857 14.5443 41.1328 14.681 40.8594 14.7949C40.5905 14.9043 40.2943 14.9886 39.9707 15.0479C39.6517 15.1071 39.3053 15.1367 38.9316 15.1367ZM40.5791 9.85938C40.848 9.85938 41.085 9.78874 41.29 9.64746C41.4997 9.50163 41.6683 9.32389 41.7959 9.11426C41.9281 8.90007 42.0124 8.68815 42.0488 8.47852C42.0716 8.3737 42.0876 8.26888 42.0967 8.16406C42.1058 8.05469 42.1104 7.94759 42.1104 7.84277C42.1104 7.58757 42.0739 7.36198 42.001 7.16602C41.9326 6.97005 41.8232 6.81738 41.6729 6.70801C41.527 6.59863 41.3402 6.54395 41.1123 6.54395C40.8571 6.54395 40.6338 6.60775 40.4424 6.73535C40.2555 6.86296 40.0983 7.03158 39.9707 7.24121C39.8477 7.44629 39.7542 7.67415 39.6904 7.9248C39.6312 8.1709 39.6016 8.41471 39.6016 8.65625C39.6016 9.04818 39.6882 9.34668 39.8613 9.55176C40.0345 9.75684 40.2738 9.85938 40.5791 9.85938Z" fill="#060640"/>
<path d="M12.825 4.34169L14 6.69169C14.1583 7.01669 14.5833 7.32503 14.9417 7.39169L17.0667 7.74169C18.425 7.96669 18.7417 8.95003 17.7667 9.93336L16.1083 11.5917C15.8333 11.8667 15.675 12.4084 15.7667 12.8L16.2417 14.85C16.6167 16.4667 15.75 17.1 14.325 16.25L12.3333 15.0667C11.975 14.85 11.375 14.85 11.0167 15.0667L9.025 16.25C7.6 17.0917 6.73334 16.4667 7.10834 14.85L7.58334 12.8C7.65834 12.4 7.5 11.8584 7.225 11.5834L5.56667 9.92503C4.59167 8.95003 4.90834 7.96669 6.26667 7.73336L8.39167 7.38336C8.75 7.32503 9.175 7.00836 9.33334 6.68336L10.5083 4.33336C11.15 3.06669 12.1833 3.06669 12.825 4.34169Z" fill="#FFBF00"/>
<path d="M6.66667 4.79163H1.66667C1.32501 4.79163 1.04167 4.50829 1.04167 4.16663C1.04167 3.82496 1.32501 3.54163 1.66667 3.54163H6.66667C7.00834 3.54163 7.29167 3.82496 7.29167 4.16663C7.29167 4.50829 7.00834 4.79163 6.66667 4.79163Z" fill="#FFBF00"/>
<path d="M4.16667 16.4584H1.66667C1.32501 16.4584 1.04167 16.175 1.04167 15.8334C1.04167 15.4917 1.32501 15.2084 1.66667 15.2084H4.16667C4.50834 15.2084 4.79167 15.4917 4.79167 15.8334C4.79167 16.175 4.50834 16.4584 4.16667 16.4584Z" fill="#FFBF00"/>
<path d="M2.50001 10.625H1.66667C1.32501 10.625 1.04167 10.3417 1.04167 10C1.04167 9.65833 1.32501 9.375 1.66667 9.375H2.50001C2.84167 9.375 3.12501 9.65833 3.12501 10C3.12501 10.3417 2.84167 10.625 2.50001 10.625Z" fill="#FFBF00"/>
</svg>
