<svg width="70" height="70" viewBox="0 0 70 70" fill="none" xmlns="http://www.w3.org/2000/svg">
<rect width="70" height="70" rx="10" fill="#ECF9FF" fill-opacity="0.8"/>
<g clip-path="url(#clip0_1_2971)">
<path d="M26.9853 38.7693H21.2139C20.2763 38.7693 19.5163 39.5293 19.5163 40.4669V53.3023C19.5163 54.2399 20.2763 54.9999 21.2139 54.9999H26.9853C27.9228 54.9999 28.6828 54.2399 28.6828 53.3023V40.4669C28.6828 39.5293 27.9228 38.7693 26.9853 38.7693Z" fill="#FFDC4A"/>
<path d="M21.9308 53.3023V40.4669C21.9308 39.5294 22.6908 38.7693 23.6284 38.7693H21.2139C20.2763 38.7693 19.5163 39.5293 19.5163 40.4669V53.3024C19.5163 54.24 20.2763 55 21.2139 55H23.6283C22.6908 54.9999 21.9308 54.2399 21.9308 53.3023Z" fill="#EDCA3A"/>
<path d="M39.4316 32.8827H33.6602C32.7226 32.8827 31.9626 33.6427 31.9626 34.5803V53.3025C31.9626 54.2401 32.7226 55.0001 33.6602 55.0001H39.4316C40.3692 55.0001 41.1292 54.2401 41.1292 53.3025V34.5802C41.1292 33.6427 40.3692 32.8827 39.4316 32.8827Z" fill="#FF3132"/>
<path d="M34.3772 53.3024V34.5801C34.3772 33.6426 35.1372 32.8826 36.0748 32.8826H33.6603C32.7228 32.8826 31.9628 33.6426 31.9628 34.5801V53.3024C31.9628 54.24 32.7228 55 33.6603 55H36.0748C35.1372 55 34.3772 54.24 34.3772 53.3024Z" fill="#D82A2B"/>
<path d="M51.8778 26.9958H46.1064C45.1689 26.9958 44.4089 27.7558 44.4089 28.6934V53.3024C44.4089 54.2399 45.1689 54.9999 46.1064 54.9999H51.8778C52.8154 54.9999 53.5754 54.2399 53.5754 53.3024V28.6934C53.5753 27.7558 52.8153 26.9958 51.8778 26.9958Z" fill="#3CDCF9"/>
<path d="M46.8234 53.3024V28.6934C46.8234 27.7558 47.5834 26.9958 48.521 26.9958H46.1066C45.169 26.9958 44.409 27.7558 44.409 28.6934V53.3024C44.409 54.2399 45.169 54.9999 46.1066 54.9999H48.521C47.5834 54.9999 46.8234 54.2399 46.8234 53.3024Z" fill="#30CBE8"/>
<path d="M53.4842 15.0074L47.6539 15.7672L49.0632 17.6522L44.0702 21.3854L41.4439 19.0698C40.996 18.6749 40.3327 18.6482 39.8543 19.0057L28.6876 27.3545L26.0754 25.3976C25.6274 25.062 25.0119 25.0617 24.5637 25.3969L15.5655 32.1246L17.0761 34.1452L25.3183 27.9828L27.9306 29.9397C28.3785 30.2753 28.994 30.2756 29.4422 29.9404L40.5441 21.6399L43.1704 23.9554C43.6183 24.3503 44.2818 24.3771 44.76 24.0195L50.5738 19.6727L51.9845 21.5593L54.3616 16.1804C54.6264 15.5811 54.1339 14.9227 53.4842 15.0074Z" fill="#2DC580"/>
</g>
<defs>
<clipPath id="clip0_1_2971">
<rect width="40" height="40" fill="white" transform="translate(15 15)"/>
</clipPath>
</defs>
</svg>
